<svg xmlns="http://www.w3.org/2000/svg" xmlns:xlink="http://www.w3.org/1999/xlink" width="500" zoomAndPan="magnify" viewBox="0 0 375 374.999991" height="500" preserveAspectRatio="xMidYMid meet" version="1.0"><defs><clipPath id="b2316b3099"><path d="M 23.316406 176 L 351.816406 176 L 351.816406 263.949219 L 23.316406 263.949219 Z M 23.316406 176 " clip-rule="nonzero"/></clipPath><clipPath id="732fbc573a"><path d="M 172 233 L 203 233 L 203 263.949219 L 172 263.949219 Z M 172 233 " clip-rule="nonzero"/></clipPath></defs><g clip-path="url(#b2316b3099)"><path fill="#ffffff" d="M 111.039062 258.664062 L 38.851562 258.664062 L 59.742188 236.324219 L 97.996094 195.414062 L 134.078125 234.011719 L 111.015625 258.664062 Z M 263.957031 258.664062 L 240.894531 234.011719 L 276.976562 195.414062 L 315.234375 236.324219 L 336.121094 258.664062 L 263.9375 258.664062 Z M 187.507812 185.03125 L 261.179688 263.816406 L 351.675781 263.816406 L 351.675781 258.664062 L 341.878906 258.664062 L 276.050781 188.269531 L 212.019531 203.121094 L 187.488281 176.902344 L 164.546875 201.429688 L 139.03125 204.792969 L 98.921875 188.289062 L 33.097656 258.683594 L 23.296875 258.683594 L 23.296875 263.835938 L 113.792969 263.835938 C 138.34375 237.574219 162.917969 211.3125 187.46875 185.050781 Z M 187.507812 185.03125 " fill-opacity="1" fill-rule="evenodd"/></g><g clip-path="url(#732fbc573a)"><path fill="#ffffff" d="M 190.265625 233.246094 L 190.265625 245.382812 L 202.398438 245.382812 C 201.253906 239.265625 196.402344 234.394531 190.265625 233.246094 Z M 172.597656 245.382812 L 184.730469 245.382812 L 184.730469 233.246094 C 178.613281 234.394531 173.742188 239.242188 172.597656 245.382812 Z M 184.730469 263.3125 L 184.730469 250.9375 L 172.335938 250.9375 L 172.335938 263.3125 Z M 202.660156 250.9375 L 190.265625 250.9375 L 190.265625 263.3125 L 202.660156 263.3125 Z M 202.660156 250.9375 " fill-opacity="1" fill-rule="evenodd"/></g><path fill="#ffffff" d="M 164.566406 201.429688 L 98.941406 188.269531 L 137.902344 229.945312 Z M 164.566406 201.429688 " fill-opacity="1" fill-rule="evenodd"/><path fill="#ffffff" d="M 210.429688 201.429688 L 276.050781 188.269531 L 237.09375 229.945312 Z M 210.429688 201.429688 " fill-opacity="1" fill-rule="evenodd"/><path fill="#ffffff" d="M 99.507812 228.78125 L 99.507812 235.320312 L 106.046875 235.320312 C 105.421875 232.019531 102.808594 229.402344 99.507812 228.78125 Z M 89.988281 235.320312 L 96.527344 235.320312 L 96.527344 228.78125 C 93.226562 229.402344 90.613281 232.019531 89.988281 235.320312 Z M 96.527344 244.980469 L 96.527344 238.296875 L 89.847656 238.296875 L 89.847656 244.980469 Z M 106.1875 238.296875 L 99.507812 238.296875 L 99.507812 244.980469 L 106.1875 244.980469 Z M 106.1875 238.296875 " fill-opacity="1" fill-rule="evenodd"/><path fill="#ffffff" d="M 278.46875 228.78125 L 278.46875 235.320312 L 285.007812 235.320312 C 284.382812 232.019531 281.765625 229.402344 278.46875 228.78125 Z M 268.949219 235.320312 L 275.488281 235.320312 L 275.488281 228.78125 C 272.1875 229.402344 269.574219 232.019531 268.949219 235.320312 Z M 275.488281 244.980469 L 275.488281 238.296875 L 268.808594 238.296875 L 268.808594 244.980469 Z M 285.148438 238.296875 L 278.46875 238.296875 L 278.46875 244.980469 L 285.148438 244.980469 Z M 285.148438 238.296875 " fill-opacity="1" fill-rule="evenodd"/><path fill="#ffffff" d="M 68.65625 208.515625 C 74.714844 190.804688 84.796875 174.585938 98.238281 161.144531 C 121.5 137.878906 152.773438 124.921875 185.695312 124.921875 C 194.953125 124.921875 204.109375 125.945312 212.984375 127.9375 C 201.492188 124.578125 189.480469 122.867188 177.285156 122.867188 C 115.503906 122.867188 63.90625 166.960938 52.476562 225.519531 L 68.835938 208.03125 L 68.675781 208.515625 Z M 68.65625 208.515625 " fill-opacity="1" fill-rule="evenodd"/><path fill="#ffffff" d="M 311.1875 235.359375 C 311.25 235.824219 311.289062 236.285156 311.328125 236.769531 C 311.289062 236.304688 311.226562 235.824219 311.1875 235.359375 Z M 311.027344 233.953125 C 311.085938 234.394531 311.128906 234.835938 311.1875 235.28125 C 311.148438 234.835938 311.085938 234.394531 311.027344 233.953125 Z M 310.847656 232.542969 C 310.90625 232.984375 310.96875 233.429688 311.007812 233.871094 C 310.945312 233.429688 310.90625 232.984375 310.847656 232.542969 Z M 310.644531 231.113281 C 310.707031 231.535156 310.765625 231.960938 310.824219 232.382812 L 310.707031 231.476562 L 310.664062 231.113281 Z M 310.203125 228.195312 C 310.363281 229.121094 310.503906 230.066406 310.644531 230.992188 C 310.503906 230.066406 310.363281 229.121094 310.203125 228.195312 Z M 309.71875 225.398438 C 309.800781 225.863281 309.878906 226.324219 309.960938 226.765625 C 309.878906 226.304688 309.800781 225.839844 309.71875 225.398438 Z M 309.4375 223.96875 C 309.519531 224.433594 309.617188 224.875 309.699219 225.339844 C 309.617188 224.875 309.519531 224.433594 309.4375 223.96875 Z M 308.855469 221.191406 C 308.953125 221.636719 309.054688 222.097656 309.136719 222.542969 C 309.035156 222.097656 308.933594 221.636719 308.855469 221.191406 Z M 308.53125 219.804688 C 308.632812 220.246094 308.734375 220.691406 308.832031 221.132812 C 308.734375 220.691406 308.632812 220.246094 308.53125 219.804688 Z M 307.503906 215.679688 C 307.746094 216.566406 307.96875 217.46875 308.191406 218.355469 C 307.96875 217.449219 307.746094 216.566406 307.503906 215.679688 Z M 307.125 214.3125 C 307.242188 214.734375 307.363281 215.15625 307.464844 215.578125 C 307.34375 215.15625 307.242188 214.734375 307.125 214.3125 Z M 306.742188 212.941406 C 306.863281 213.34375 306.980469 213.746094 307.082031 214.148438 C 306.960938 213.746094 306.863281 213.34375 306.742188 212.941406 Z M 306.339844 211.574219 C 306.460938 211.996094 306.578125 212.417969 306.699219 212.820312 C 306.578125 212.398438 306.460938 211.976562 306.339844 211.574219 Z M 305.894531 210.125 C 306.035156 210.566406 306.175781 211.011719 306.296875 211.453125 C 306.15625 211.011719 306.035156 210.566406 305.894531 210.125 Z M 305.453125 208.757812 C 305.59375 209.199219 305.734375 209.640625 305.875 210.085938 C 305.734375 209.640625 305.59375 209.199219 305.453125 208.757812 Z M 178.550781 116.628906 C 214.050781 116.628906 247.796875 130.597656 272.894531 155.710938 C 287.886719 170.703125 298.992188 188.875 305.453125 208.757812 C 305.210938 207.992188 304.949219 207.226562 304.6875 206.460938 L 322.960938 225.980469 C 312.175781 160.839844 255.585938 111.15625 187.386719 111.15625 C 156.65625 111.15625 127.21875 121.320312 103.25 139.894531 C 125.265625 124.800781 151.40625 116.628906 178.574219 116.628906 Z M 178.550781 116.628906 " fill-opacity="1" fill-rule="evenodd"/><path fill="#ffffff" d="M 98.941406 182.714844 L 164.566406 195.855469 L 187.507812 171.328125 L 210.449219 195.855469 L 276.074219 182.714844 L 294.203125 202.117188 C 276.375 160.339844 234.9375 131.058594 186.640625 131.058594 C 137.097656 131.058594 94.757812 161.886719 77.753906 205.394531 L 98.964844 182.714844 Z M 98.941406 182.714844 " fill-opacity="1" fill-rule="evenodd"/></svg>